<svg width="20" height="20" viewBox="0 0 20 20" fill="none" xmlns="http://www.w3.org/2000/svg">
<path d="M18.1084 14.9999L11.4417 3.33319C11.2964 3.0767 11.0856 2.86335 10.8308 2.71492C10.5761 2.56649 10.2866 2.48828 9.99173 2.48828C9.69691 2.48828 9.40736 2.56649 9.15263 2.71492C8.89789 2.86335 8.68709 3.0767 8.54173 3.33319L1.87506 14.9999C1.72813 15.2543 1.65109 15.5431 1.65174 15.837C1.65239 16.1308 1.73071 16.4192 1.87877 16.673C2.02683 16.9269 2.23935 17.137 2.49481 17.2822C2.75027 17.4274 3.03957 17.5025 3.3334 17.4999H16.6667C16.9591 17.4996 17.2463 17.4223 17.4995 17.2759C17.7526 17.1295 17.9627 16.9191 18.1088 16.6658C18.2549 16.4125 18.3318 16.1252 18.3317 15.8328C18.3316 15.5404 18.2546 15.2531 18.1084 14.9999Z" stroke="white" stroke-width="1.66667" stroke-linecap="round" stroke-linejoin="round"/>
<path d="M10 7.5V10.8333" stroke="white" stroke-width="1.66667" stroke-linecap="round" stroke-linejoin="round"/>
<path d="M10 14.166H10.0083" stroke="white" stroke-width="1.66667" stroke-linecap="round" stroke-linejoin="round"/>
</svg>
