<svg width="32" height="32" viewBox="0 0 32 32" fill="none" xmlns="http://www.w3.org/2000/svg">
<path d="M28.9735 24.001L18.3068 5.33428C18.0742 4.92389 17.737 4.58253 17.3294 4.34504C16.9218 4.10755 16.4585 3.98242 15.9868 3.98242C15.5151 3.98242 15.0518 4.10755 14.6443 4.34504C14.2367 4.58253 13.8994 4.92389 13.6668 5.33428L3.00015 24.001C2.76506 24.4081 2.64179 24.8702 2.64283 25.3403C2.64387 25.8104 2.76919 26.272 3.00608 26.6781C3.24297 27.0841 3.58301 27.4204 3.99174 27.6527C4.40047 27.885 4.86336 28.0052 5.33348 28.001H26.6668C27.1347 28.0005 27.5942 27.8769 27.9992 27.6427C28.4042 27.4084 28.7404 27.0717 28.9742 26.6664C29.2079 26.2611 29.3309 25.8015 29.3308 25.3336C29.3306 24.8657 29.2074 24.4061 28.9735 24.001Z" stroke="white" stroke-width="2.66667" stroke-linecap="round" stroke-linejoin="round"/>
<path d="M16 12V17.3333" stroke="white" stroke-width="2.66667" stroke-linecap="round" stroke-linejoin="round"/>
<path d="M16 22.666H16.0133" stroke="white" stroke-width="2.66667" stroke-linecap="round" stroke-linejoin="round"/>
</svg>
