<svg width="14" height="14" viewBox="0 0 14 14" fill="none" xmlns="http://www.w3.org/2000/svg">
<g clip-path="url(#clip0_382_2598)">
<path d="M0 6.99935H4.66667M4.66667 6.99935C4.66667 6.38051 4.9125 5.78702 5.35008 5.34943C5.78767 4.91185 6.38116 4.66602 7 4.66602C7.61884 4.66602 8.21233 4.91185 8.64992 5.34943C9.0875 5.78702 9.33333 6.38051 9.33333 6.99935M4.66667 6.99935C4.66667 7.61819 4.9125 8.21168 5.35008 8.64927C5.78767 9.08685 6.38116 9.33268 7 9.33268C7.61884 9.33268 8.21233 9.08685 8.64992 8.64927C9.0875 8.21168 9.33333 7.61819 9.33333 6.99935M9.33333 6.99935H14" stroke="#027499" stroke-width="1.75"/>
</g>
<defs>
<clipPath id="clip0_382_2598">
<rect width="14" height="14" fill="white"/>
</clipPath>
</defs>
</svg>
