<svg width="32" height="32" viewBox="0 0 32 32" fill="none" xmlns="http://www.w3.org/2000/svg">
<path d="M7.99992 29.3327C7.29267 29.3327 6.6144 29.0517 6.1143 28.5516C5.6142 28.0515 5.33325 27.3733 5.33325 26.666V5.33269C5.33325 4.62544 5.6142 3.94717 6.1143 3.44707C6.6144 2.94697 7.29267 2.66602 7.99992 2.66602H18.6666C19.0887 2.66534 19.5067 2.74816 19.8966 2.90971C20.2866 3.07127 20.6407 3.30837 20.9386 3.60735L25.7226 8.39135C26.0224 8.68936 26.2601 9.04381 26.4222 9.43424C26.5842 9.82466 26.6673 10.2433 26.6666 10.666V26.666C26.6666 27.3733 26.3856 28.0515 25.8855 28.5516C25.3854 29.0517 24.7072 29.3327 23.9999 29.3327H7.99992Z" stroke="white" stroke-width="2.66667" stroke-linecap="round" stroke-linejoin="round"/>
<path d="M18.6667 2.66602V9.33268C18.6667 9.6863 18.8072 10.0254 19.0573 10.2755C19.3073 10.5255 19.6465 10.666 20.0001 10.666H26.6667" stroke="white" stroke-width="2.66667" stroke-linecap="round" stroke-linejoin="round"/>
<path d="M13.3334 12H10.6667" stroke="white" stroke-width="2.66667" stroke-linecap="round" stroke-linejoin="round"/>
<path d="M21.3334 17.334H10.6667" stroke="white" stroke-width="2.66667" stroke-linecap="round" stroke-linejoin="round"/>
<path d="M21.3334 22.666H10.6667" stroke="white" stroke-width="2.66667" stroke-linecap="round" stroke-linejoin="round"/>
</svg>
