<svg width="56" height="56" viewBox="0 0 56 56" fill="none" xmlns="http://www.w3.org/2000/svg">
<g clip-path="url(#clip0_382_2670)">
<path d="M26.3667 43.1667L33.8333 31.5H42C45.5 31.5 48.4167 29.75 49 28C48.4167 26.25 45.5 24.5 42 24.5H33.8333L26.3667 12.8333C25.9 12.1333 25.2 11.9 24.5 12.1333L23.5667 12.3667C22.75 12.7167 22.2833 13.4167 22.4 14.2333L24.5 24.5L18.6667 25.6667L15.1667 22.1667H12.8333L14 28L12.8333 33.8333H15.1667L18.6667 30.3333L24.5 31.5L22.4 41.7667C22.2833 42.5833 22.75 43.2833 23.5667 43.6333L24.3833 43.9833C25.2 44.1 25.9 43.8667 26.3667 43.1667Z" stroke="#027499" stroke-width="3.29983" stroke-linecap="round" stroke-linejoin="round"/>
</g>
<defs>
<clipPath id="clip0_382_2670">
<rect width="39.598" height="39.598" fill="white" transform="translate(28) rotate(45)"/>
</clipPath>
</defs>
</svg>
