<svg width="20" height="20" viewBox="0 0 20 20" fill="none" xmlns="http://www.w3.org/2000/svg">
<path d="M5.00004 18.3327C4.55801 18.3327 4.13409 18.1571 3.82153 17.8445C3.50897 17.532 3.33337 17.108 3.33337 16.666V3.33268C3.33337 2.89066 3.50897 2.46673 3.82153 2.15417C4.13409 1.84161 4.55801 1.66602 5.00004 1.66602H11.6667C11.9305 1.66559 12.1918 1.71735 12.4355 1.81833C12.6792 1.9193 12.9005 2.06748 13.0867 2.25435L16.0767 5.24435C16.2641 5.43061 16.4127 5.65214 16.514 5.89615C16.6152 6.14017 16.6671 6.40183 16.6667 6.66602V16.666C16.6667 17.108 16.4911 17.532 16.1786 17.8445C15.866 18.1571 15.4421 18.3327 15 18.3327H5.00004Z" stroke="white" stroke-opacity="0.9" stroke-width="1.66667" stroke-linecap="round" stroke-linejoin="round"/>
<path d="M11.6666 1.66602V5.83268C11.6666 6.0537 11.7544 6.26566 11.9107 6.42194C12.067 6.57822 12.2789 6.66602 12.5 6.66602H16.6666" stroke="white" stroke-opacity="0.9" stroke-width="1.66667" stroke-linecap="round" stroke-linejoin="round"/>
<path d="M8.33329 7.5H6.66663" stroke="white" stroke-opacity="0.9" stroke-width="1.66667" stroke-linecap="round" stroke-linejoin="round"/>
<path d="M13.3333 10.834H6.66663" stroke="white" stroke-opacity="0.9" stroke-width="1.66667" stroke-linecap="round" stroke-linejoin="round"/>
<path d="M13.3333 14.166H6.66663" stroke="white" stroke-opacity="0.9" stroke-width="1.66667" stroke-linecap="round" stroke-linejoin="round"/>
</svg>
