<svg width="20" height="20" viewBox="0 0 20 20" fill="none" xmlns="http://www.w3.org/2000/svg">
<path d="M13.0892 17.7447C12.9329 17.9009 12.721 17.9887 12.5 17.9887C12.2791 17.9887 12.0671 17.9009 11.9109 17.7447L10.5892 16.423C10.433 16.2668 10.3452 16.0548 10.3452 15.8339C10.3452 15.6129 10.433 15.401 10.5892 15.2447L15.2442 10.5897C15.4005 10.4335 15.6124 10.3457 15.8334 10.3457C16.0543 10.3457 16.2663 10.4335 16.4225 10.5897L17.7442 11.9114C17.9004 12.0676 17.9882 12.2796 17.9882 12.5005C17.9882 12.7215 17.9004 12.9334 17.7442 13.0897L13.0892 17.7447Z" stroke="white" stroke-opacity="0.9" stroke-width="1.66667" stroke-linecap="round" stroke-linejoin="round"/>
<path d="M15 10.8327L13.8541 5.10435C13.823 4.9485 13.7479 4.80482 13.6377 4.69024C13.5276 4.57566 13.387 4.49497 13.2325 4.45769L2.6958 1.68935C2.55699 1.65579 2.41188 1.65847 2.2744 1.69712C2.13692 1.73578 2.01169 1.80911 1.9107 1.91009C1.80972 2.01108 1.73639 2.13631 1.69773 2.27379C1.65908 2.41127 1.6564 2.55638 1.68996 2.69519L4.4583 13.2319C4.49558 13.3864 4.57627 13.527 4.69085 13.6371C4.80543 13.7473 4.94911 13.8224 5.10496 13.8535L10.8333 14.9994" stroke="white" stroke-opacity="0.9" stroke-width="1.66667" stroke-linecap="round" stroke-linejoin="round"/>
<path d="M1.91663 1.91602L7.98829 7.98768" stroke="white" stroke-opacity="0.9" stroke-width="1.66667" stroke-linecap="round" stroke-linejoin="round"/>
<path d="M9.16667 10.8333C10.0871 10.8333 10.8333 10.0871 10.8333 9.16667C10.8333 8.24619 10.0871 7.5 9.16667 7.5C8.24619 7.5 7.5 8.24619 7.5 9.16667C7.5 10.0871 8.24619 10.8333 9.16667 10.8333Z" stroke="white" stroke-opacity="0.9" stroke-width="1.66667" stroke-linecap="round" stroke-linejoin="round"/>
</svg>
